<?xml version="1.0" encoding="UTF-8"?>
<svg xmlns="http://www.w3.org/2000/svg" xmlns:xlink="http://www.w3.org/1999/xlink" width="1502pt" height="635pt" viewBox="0 0 1502 635" version="1.1">
<g id="surface1">
<path style=" stroke:none;fill-rule:nonzero;fill:rgb(0%,0%,0%);fill-opacity:1;" d="M 348.40625 112.957031 C 346.496094 116.390625 345.542969 128.984375 344.589844 166 C 343.828125 199.199219 342.300781 221.90625 339.820312 237.550781 C 328.5625 309.105469 319.785156 339.632812 307.574219 349.363281 C 301.085938 354.324219 290.59375 356.996094 285.25 354.898438 C 273.609375 350.507812 265.980469 316.925781 260.253906 245.183594 C 257.203125 208.933594 256.058594 200.726562 253.386719 198.054688 C 249.378906 194.050781 241.746094 193.476562 238.886719 196.910156 C 236.59375 199.773438 233.925781 215.226562 228.964844 253.769531 C 218.660156 333.71875 219.234375 329.902344 212.171875 336.390625 C 204.351562 343.640625 198.246094 334.480469 194.617188 310.058594 C 193.472656 301.664062 191.375 290.023438 189.847656 284.300781 C 188.511719 278.574219 186.796875 269.417969 186.03125 264.265625 C 185.460938 258.921875 184.125 252.054688 183.171875 249 C 182.214844 245.757812 180.5 232.972656 179.355469 220.378906 C 177.066406 192.714844 170.195312 136.808594 168.289062 128.792969 C 166.570312 121.925781 159.128906 118.488281 151.308594 121.351562 C 145.011719 123.640625 144.820312 126.695312 149.398438 149.78125 C 151.117188 158.175781 153.023438 170.960938 153.597656 178.402344 C 154.359375 185.652344 155.695312 194.8125 156.648438 198.4375 C 157.414062 202.0625 159.511719 217.898438 161.226562 233.738281 C 162.753906 249.382812 165.042969 267.128906 166 272.851562 C 167.144531 278.574219 168.859375 290.597656 169.816406 299.5625 C 172.105469 319.21875 179.925781 351.464844 183.363281 356.042969 C 194.429688 369.78125 199.960938 373.976562 207.402344 373.976562 C 212.363281 373.976562 216.941406 372.453125 220.1875 369.972656 C 226.101562 365.390625 239.457031 338.296875 241.554688 327.039062 C 243.65625 315.210938 244.609375 315.402344 248.234375 328.949219 C 252.242188 344.402344 262.925781 369.972656 266.933594 373.976562 C 276.089844 382.753906 281.242188 385.425781 289.828125 385.425781 C 315.015625 385.425781 338.292969 354.898438 348.023438 309.296875 C 361 249.382812 362.335938 237.742188 365.578125 152.261719 C 366.722656 122.496094 366.339844 117.726562 363.671875 113.527344 C 359.664062 107.421875 352.222656 107.234375 348.40625 112.957031 Z M 348.40625 112.957031 "/>
<path style=" stroke:none;fill-rule:nonzero;fill:rgb(0%,0%,0%);fill-opacity:1;" d="M 1049.605469 117.15625 C 1045.789062 121.734375 1037.585938 186.417969 1034.34375 237.550781 C 1033.199219 254.34375 1031.289062 282.582031 1030.144531 300.136719 C 1027.089844 346.691406 1029.953125 366.726562 1040.828125 375.125 C 1048.269531 380.65625 1049.796875 380.847656 1058.765625 375.695312 C 1064.488281 372.453125 1066.777344 369.398438 1070.402344 359.476562 C 1073.074219 352.800781 1075.554688 347.265625 1076.128906 347.265625 C 1076.699219 347.265625 1079.753906 351.464844 1082.804688 356.425781 C 1091.011719 369.398438 1101.3125 374.167969 1118.867188 373.023438 C 1132.796875 372.070312 1141.382812 369.589844 1151.6875 363.484375 C 1159.699219 358.523438 1162.5625 353.753906 1161.035156 347.074219 C 1159.316406 339.0625 1153.402344 338.296875 1141.191406 344.59375 C 1128.027344 351.082031 1120.203125 350.128906 1110.28125 340.398438 C 1101.695312 332 1099.023438 322.078125 1100.167969 303.570312 C 1100.933594 292.695312 1108.566406 262.546875 1112.191406 256.632812 C 1113.527344 254.152344 1114.480469 250.527344 1115.625 242.132812 C 1116.386719 235.835938 1116.003906 235.070312 1110.664062 232.78125 C 1107.417969 231.445312 1103.605469 230.875 1102.078125 231.445312 C 1098.832031 232.78125 1089.484375 249.191406 1088.148438 256.25 C 1087.578125 259.113281 1086.242188 261.976562 1085.476562 262.546875 C 1084.523438 263.121094 1083.761719 264.835938 1083.761719 266.554688 C 1083.761719 268.273438 1081.28125 275.332031 1078.226562 282.199219 C 1075.363281 289.070312 1071.359375 299.5625 1069.449219 305.289062 C 1062.773438 326.660156 1055.140625 342.304688 1052.46875 339.632812 C 1051.324219 338.488281 1051.515625 318.453125 1053.039062 284.871094 C 1055.519531 227.628906 1057.046875 208.550781 1061.816406 171.726562 C 1063.535156 158.558594 1065.441406 141.769531 1066.015625 134.328125 C 1066.96875 121.734375 1066.777344 120.589844 1062.582031 117.535156 C 1057.046875 113.71875 1052.46875 113.527344 1049.605469 117.15625 Z M 1049.605469 117.15625 "/>
<path style=" stroke:none;fill-rule:nonzero;fill:rgb(0%,0%,0%);fill-opacity:1;" d="M 923.484375 118.488281 C 849.644531 123.449219 845.257812 124.40625 845.257812 135.472656 C 845.257812 144.25 848.5 145.394531 867.390625 143.105469 C 876.738281 142.148438 885.132812 141.195312 886.089844 141.195312 C 886.851562 141.195312 887.234375 144.820312 886.660156 149.210938 C 886.089844 153.789062 884.753906 166.382812 883.609375 177.449219 C 882.464844 188.515625 880.554688 204.542969 879.601562 213.128906 C 873.113281 265.601562 869.679688 365.203125 874.257812 369.78125 C 877.3125 372.832031 887.613281 372.832031 890.667969 369.78125 C 892.195312 368.253906 892.957031 359.09375 892.957031 341.542969 C 893.148438 300.710938 900.015625 198.820312 904.40625 174.585938 C 905.550781 168.289062 907.265625 157.988281 908.414062 151.691406 C 909.558594 145.394531 910.511719 140.242188 910.703125 140.050781 C 910.894531 139.859375 924.441406 139.289062 940.65625 139.097656 C 956.875 138.714844 972.140625 138.144531 974.621094 137.761719 C 979.582031 136.808594 983.398438 129.367188 981.679688 124.023438 C 979.199219 116.199219 970.234375 115.4375 923.484375 118.488281 Z M 923.484375 118.488281 "/>
<path style=" stroke:none;fill-rule:nonzero;fill:rgb(0%,0%,0%);fill-opacity:1;" d="M 473.191406 124.023438 C 469.183594 126.503906 468.039062 143.105469 467.65625 203.207031 C 467.46875 231.636719 466.511719 262.546875 465.558594 271.898438 C 462.886719 296.894531 463.269531 329.519531 466.320312 340.96875 C 469.183594 351.464844 481.585938 372.070312 485.210938 372.070312 C 486.546875 372.070312 490.171875 373.40625 493.226562 375.125 C 501.046875 379.320312 526.042969 380.65625 532.339844 377.414062 C 538.445312 374.167969 539.207031 368.445312 534.4375 362.148438 C 531.195312 358.140625 528.523438 357.1875 518.03125 356.425781 C 503.339844 355.089844 500.859375 353.5625 495.132812 340.585938 C 488.265625 325.894531 485.976562 308.339844 487.308594 282.773438 C 487.882812 270.5625 489.027344 230.683594 489.601562 194.429688 L 490.746094 128.410156 L 486.355469 125.167969 C 481.394531 121.734375 477.390625 121.351562 473.191406 124.023438 Z M 473.191406 124.023438 "/>
<path style=" stroke:none;fill-rule:nonzero;fill:rgb(0%,0%,0%);fill-opacity:1;" d="M 697.574219 136.425781 C 695.667969 139.097656 693.757812 148.636719 692.613281 159.703125 C 690.707031 178.210938 688.226562 196.148438 684.601562 215.039062 L 682.882812 224.960938 L 674.871094 220.761719 C 663.421875 214.65625 637.855469 214.847656 626.40625 220.761719 C 602.363281 233.738281 578.132812 272.277344 578.132812 298.039062 C 578.132812 300.898438 577.371094 303.378906 576.222656 303.378906 C 575.078125 303.378906 574.316406 309.484375 574.316406 317.691406 C 574.316406 325.515625 575.078125 332 575.84375 332 C 576.796875 332 578.515625 336.582031 579.851562 341.921875 C 584.238281 361.957031 604.84375 377.792969 625.832031 377.792969 C 646.628906 377.605469 659.605469 368.253906 671.625 344.210938 C 676.394531 335.054688 680.210938 326.847656 680.210938 326.085938 C 680.210938 325.324219 680.785156 324.179688 681.546875 323.414062 C 682.121094 322.652344 682.3125 333.71875 681.738281 348.027344 C 680.59375 375.886719 681.546875 379.703125 689.941406 379.703125 C 697.957031 379.703125 699.863281 375.503906 701.199219 353.5625 C 701.773438 342.113281 703.109375 322.652344 704.253906 310.058594 C 705.207031 297.464844 707.304688 268.273438 708.832031 245.183594 C 710.359375 222.097656 712.457031 193.285156 713.601562 181.265625 C 716.082031 152.070312 716.082031 136.808594 713.222656 133.945312 C 709.214844 129.9375 701.007812 131.273438 697.574219 136.425781 Z M 669.527344 239.84375 C 679.640625 245.757812 680.019531 248.621094 673.535156 270.945312 C 670.097656 282.011719 666.664062 294.601562 665.710938 299.183594 C 663.992188 307.578125 655.597656 330.855469 652.355469 335.816406 C 651.402344 337.34375 649.683594 340.585938 648.539062 342.878906 C 645.675781 348.410156 635.753906 352.988281 626.597656 352.988281 C 618.582031 352.988281 610.378906 348.21875 602.9375 339.0625 C 598.546875 333.527344 598.167969 331.808594 598.359375 312.921875 C 598.546875 296.128906 599.3125 290.976562 603.320312 281.4375 C 611.714844 261.210938 619.347656 252.246094 635.375 244.039062 C 651.402344 235.835938 660.367188 234.691406 669.527344 239.84375 Z M 669.527344 239.84375 "/>
<path style=" stroke:none;fill-rule:nonzero;fill:rgb(0%,0%,0%);fill-opacity:1;" d="M 407.554688 153.597656 C 397.632812 162.757812 403.929688 179.167969 416.332031 176.6875 C 419.574219 176.113281 422.820312 175.539062 423.582031 175.539062 C 426.253906 175.539062 429.304688 163.902344 428.160156 158.941406 C 427.015625 154.933594 419.003906 148.828125 414.421875 148.828125 C 413.46875 148.828125 410.417969 150.925781 407.554688 153.597656 Z M 407.554688 153.597656 "/>
<path style=" stroke:none;fill-rule:nonzero;fill:rgb(0%,0%,0%);fill-opacity:1;" d="M 972.902344 151.691406 C 967.179688 154.742188 965.082031 160.277344 966.796875 168.289062 C 968.707031 177.832031 978.4375 180.3125 987.214844 173.441406 C 993.890625 168.097656 993.890625 160.085938 987.023438 153.597656 C 980.917969 148.066406 979.773438 147.875 972.902344 151.691406 Z M 972.902344 151.691406 "/>
<path style=" stroke:none;fill-rule:nonzero;fill:rgb(0%,0%,0%);fill-opacity:1;" d="M 1202.628906 153.789062 C 1198.625 157.796875 1198.050781 159.894531 1198.8125 165.429688 C 1200.339844 174.207031 1203.203125 177.449219 1209.691406 177.449219 C 1216.367188 177.449219 1222.472656 172.296875 1224.191406 165.617188 C 1225.144531 161.421875 1224.191406 159.324219 1219.613281 154.550781 C 1212.550781 147.492188 1209.117188 147.300781 1202.628906 153.789062 Z M 1202.628906 153.789062 "/>
<path style=" stroke:none;fill-rule:nonzero;fill:rgb(0%,0%,0%);fill-opacity:1;" d="M 1303.566406 213.320312 C 1293.261719 216.5625 1286.203125 224.769531 1282.003906 238.699219 C 1277.425781 253.960938 1277.996094 265.792969 1284.484375 286.207031 C 1288.683594 299.753906 1293.453125 305.097656 1310.050781 314.636719 C 1317.113281 318.644531 1320.546875 322.078125 1322.074219 326.46875 C 1325.125 335.054688 1324.746094 337.535156 1319.972656 344.785156 C 1312.914062 355.089844 1295.167969 359.09375 1277.425781 354.707031 C 1270.175781 352.800781 1268.074219 351.082031 1263.304688 343.257812 C 1256.054688 331.621094 1251.476562 328.949219 1244.417969 332.382812 C 1240.410156 334.480469 1239.265625 336.199219 1239.457031 340.777344 C 1239.835938 347.265625 1251.09375 364.4375 1257.964844 368.636719 C 1282.003906 383.898438 1316.15625 380.847656 1336.957031 361.574219 C 1351.265625 348.410156 1353.746094 335.4375 1345.351562 319.597656 C 1341.535156 312.347656 1331.613281 301.472656 1328.941406 301.472656 C 1327.796875 301.472656 1321.5 296.128906 1315.011719 289.832031 C 1301.847656 276.667969 1298.222656 268.082031 1300.128906 253.769531 C 1301.847656 240.796875 1309.480469 234.691406 1323.980469 234.691406 C 1335.8125 234.691406 1341.34375 231.257812 1341.34375 223.816406 C 1341.34375 216.753906 1334.476562 212.9375 1320.738281 212.367188 C 1313.675781 212.175781 1306.046875 212.558594 1303.566406 213.320312 Z M 1303.566406 213.320312 "/>
<path style=" stroke:none;fill-rule:nonzero;fill:rgb(0%,0%,0%);fill-opacity:1;" d="M 407.554688 221.714844 C 404.882812 225.339844 404.503906 236.027344 404.503906 298.609375 C 404.503906 369.207031 404.691406 371.496094 408.316406 375.503906 C 413.277344 380.65625 418.621094 380.847656 423.582031 375.886719 C 427.398438 372.070312 427.589844 369.972656 427.398438 298.800781 C 427.207031 237.550781 426.636719 224.960938 424.34375 221.523438 C 420.53125 215.992188 411.371094 216.183594 407.554688 221.714844 Z M 407.554688 221.714844 "/>
<path style=" stroke:none;fill-rule:nonzero;fill:rgb(0%,0%,0%);fill-opacity:1;" d="M 971.378906 220 C 969.851562 222.097656 968.324219 323.796875 969.277344 371.496094 C 969.277344 375.3125 975.003906 379.703125 979.773438 379.703125 C 990.074219 379.703125 990.265625 377.605469 990.265625 297.464844 C 990.265625 228.585938 990.074219 223.625 986.832031 220.761719 C 982.632812 216.945312 974.429688 216.5625 971.378906 220 Z M 971.378906 220 "/>
<path style=" stroke:none;fill-rule:nonzero;fill:rgb(0%,0%,0%);fill-opacity:1;" d="M 1202.058594 221.144531 C 1200.914062 223.625 1200.148438 251.289062 1200.148438 298.039062 C 1200.148438 377.605469 1200.339844 379.703125 1210.644531 379.703125 C 1221.136719 379.703125 1221.136719 380.085938 1221.136719 300.519531 C 1221.136719 257.585938 1220.375 225.339844 1219.230469 222.480469 C 1217.703125 218.472656 1216.175781 217.519531 1210.835938 217.519531 C 1206.066406 217.519531 1203.585938 218.664062 1202.058594 221.144531 Z M 1202.058594 221.144531 "/>
<path style=" stroke:none;fill-rule:nonzero;fill:rgb(0%,0%,0%);fill-opacity:1;" d="M 963.9375 506.777344 C 963.554688 539.40625 964.890625 545.128906 972.332031 543.222656 C 975.574219 542.460938 975.382812 542.269531 971.757812 542.078125 C 966.035156 541.886719 965.460938 539.023438 964.890625 504.679688 L 964.316406 476.058594 Z M 963.9375 506.777344 "/>
<path style=" stroke:none;fill-rule:nonzero;fill:rgb(0%,0%,0%);fill-opacity:1;" d="M 406.984375 511.359375 C 406.792969 529.675781 407.363281 543.03125 408.128906 541.125 C 409.082031 538.453125 410.035156 538.070312 410.988281 539.597656 C 411.753906 540.933594 413.277344 541.886719 414.613281 541.886719 C 415.757812 541.886719 414.804688 540.550781 412.515625 538.835938 C 408.890625 536.355469 408.316406 534.253906 408.316406 521.472656 C 408.316406 509.070312 408.890625 506.015625 412.707031 502.007812 C 416.902344 497.046875 416.902344 497.046875 412.707031 500.671875 L 408.507812 504.109375 L 407.746094 491.132812 C 407.554688 483.882812 406.984375 493.039062 406.984375 511.359375 Z M 406.984375 511.359375 "/>
<path style=" stroke:none;fill-rule:nonzero;fill:rgb(0%,0%,0%);fill-opacity:1;" d="M 504.292969 511.359375 C 504.101562 529.675781 504.671875 543.03125 505.4375 541.125 C 506.390625 538.453125 507.34375 538.070312 508.296875 539.597656 C 509.0625 540.933594 510.589844 541.886719 511.925781 541.886719 C 513.070312 541.886719 512.113281 540.550781 509.824219 538.835938 C 506.199219 536.355469 505.628906 534.253906 505.628906 521.472656 C 505.628906 509.070312 506.199219 506.015625 510.015625 502.007812 C 514.214844 497.046875 514.214844 497.046875 510.015625 500.671875 L 505.816406 504.109375 L 505.054688 491.132812 C 504.863281 483.882812 504.292969 493.039062 504.292969 511.359375 Z M 504.292969 511.359375 "/>
<path style=" stroke:none;fill-rule:nonzero;fill:rgb(0%,0%,0%);fill-opacity:1;" d="M 554.28125 480.828125 C 553.710938 481.785156 554.089844 482.738281 555.046875 482.738281 C 556.191406 482.738281 557.144531 481.785156 557.144531 480.828125 C 557.144531 479.683594 556.761719 478.921875 556.382812 478.921875 C 555.808594 478.921875 554.855469 479.683594 554.28125 480.828125 Z M 554.28125 480.828125 "/>
<path style=" stroke:none;fill-rule:nonzero;fill:rgb(0%,0%,0%);fill-opacity:1;" d="M 889.523438 489.988281 C 889.140625 502.007812 889.140625 502.007812 884.945312 499.148438 C 882.652344 497.429688 878.457031 496.09375 875.785156 496.285156 C 871.585938 496.476562 871.777344 496.667969 877.121094 498 C 887.996094 500.480469 889.140625 502.582031 889.140625 520.136719 C 889.140625 534.253906 888.757812 536.164062 884.945312 538.835938 C 882.652344 540.550781 881.507812 541.886719 882.464844 541.886719 C 883.609375 541.886719 885.898438 540.550781 887.804688 539.214844 C 890.859375 536.925781 891.050781 533.492188 890.476562 507.351562 C 890.285156 491.132812 889.714844 483.308594 889.523438 489.988281 Z M 889.523438 489.988281 "/>
<path style=" stroke:none;fill-rule:nonzero;fill:rgb(0%,0%,0%);fill-opacity:1;" d="M 941.039062 489.988281 C 940.65625 502.007812 940.65625 502.007812 936.460938 499.148438 C 934.171875 497.429688 929.972656 496.09375 927.300781 496.285156 C 923.105469 496.476562 923.296875 496.667969 928.636719 498 C 939.511719 500.480469 940.65625 502.582031 940.65625 520.136719 C 940.65625 534.253906 940.277344 536.164062 936.460938 538.835938 C 934.171875 540.550781 933.027344 541.886719 933.980469 541.886719 C 935.125 541.886719 937.414062 540.550781 939.324219 539.214844 C 942.375 536.925781 942.566406 533.492188 941.992188 507.351562 C 941.804688 491.132812 941.230469 483.308594 941.039062 489.988281 Z M 941.039062 489.988281 "/>
<path style=" stroke:none;fill-rule:nonzero;fill:rgb(0%,0%,0%);fill-opacity:1;" d="M 709.597656 484.644531 C 720.472656 487.316406 722.761719 496.855469 714.367188 504.679688 C 708.070312 510.59375 706.542969 510.59375 700.4375 505.0625 L 695.667969 500.863281 L 699.101562 506.207031 C 702.34375 511.550781 702.34375 511.550781 696.621094 516.890625 C 688.417969 524.523438 688.609375 535.972656 697.195312 540.359375 C 701.199219 542.269531 701.007812 542.269531 697.003906 537.6875 C 691.089844 531.394531 691.46875 523.761719 697.574219 518.035156 C 700.4375 515.363281 703.679688 513.265625 704.824219 513.265625 C 706.160156 513.265625 711.695312 517.84375 717.226562 523.570312 L 727.339844 533.683594 L 721.808594 537.878906 C 718.945312 540.359375 717.800781 541.503906 719.328125 540.742188 C 720.851562 539.980469 723.714844 538.070312 725.625 536.542969 C 728.675781 533.875 729.4375 534.0625 735.164062 539.214844 L 741.269531 544.75 L 734.972656 537.878906 C 731.539062 534.253906 729.4375 530.4375 730.203125 529.484375 C 731.15625 528.722656 730.773438 528.53125 729.628906 529.101562 C 728.292969 529.867188 722.953125 526.433594 717.609375 521.660156 L 707.6875 512.695312 L 714.558594 506.589844 C 722.1875 499.335938 723.332031 492.46875 717.417969 486.554688 C 715.320312 484.453125 711.3125 482.738281 708.449219 482.929688 C 703.488281 483.117188 703.488281 483.308594 709.597656 484.644531 Z M 709.597656 484.644531 "/>
<path style=" stroke:none;fill-rule:nonzero;fill:rgb(0%,0%,0%);fill-opacity:1;" d="M 698.148438 487.890625 C 695.667969 490.941406 695.859375 491.132812 698.910156 488.652344 C 701.964844 486.171875 702.917969 484.644531 701.390625 484.644531 C 701.007812 484.644531 699.484375 486.171875 698.148438 487.890625 Z M 698.148438 487.890625 "/>
<path style=" stroke:none;fill-rule:nonzero;fill:rgb(0%,0%,0%);fill-opacity:1;" d="M 782.671875 489.796875 C 782.292969 494.375 781.335938 496.09375 778.09375 496.667969 L 773.707031 497.429688 L 778.09375 497.8125 C 782.101562 498 782.292969 498.574219 782.292969 516.699219 C 782.292969 538.070312 784.773438 543.984375 793.359375 543.605469 C 798.511719 543.222656 798.511719 543.222656 793.738281 542.460938 C 785.726562 541.125 784.199219 536.925781 784.199219 516.890625 L 784.199219 498.191406 L 791.449219 497.429688 L 798.511719 496.667969 L 791.449219 496.476562 C 784.964844 496.09375 784.390625 495.519531 783.628906 489.796875 L 782.863281 483.691406 Z M 782.671875 489.796875 "/>
<path style=" stroke:none;fill-rule:nonzero;fill:rgb(0%,0%,0%);fill-opacity:1;" d="M 694.902344 496.09375 C 694.902344 498.765625 695.285156 499.71875 695.859375 498.382812 C 696.238281 497.238281 696.238281 494.949219 695.859375 493.613281 C 695.285156 492.46875 694.902344 493.421875 694.902344 496.09375 Z M 694.902344 496.09375 "/>
<path style=" stroke:none;fill-rule:nonzero;fill:rgb(0%,0%,0%);fill-opacity:1;" d="M 420.339844 497.429688 C 422.054688 497.8125 424.726562 497.8125 426.0625 497.429688 C 427.207031 496.855469 425.871094 496.476562 422.628906 496.476562 C 419.574219 496.476562 418.429688 496.855469 420.339844 497.429688 Z M 420.339844 497.429688 "/>
<path style=" stroke:none;fill-rule:nonzero;fill:rgb(0%,0%,0%);fill-opacity:1;" d="M 464.222656 497.429688 C 465.941406 497.8125 468.992188 497.8125 470.902344 497.429688 C 472.617188 496.855469 471.09375 496.476562 467.46875 496.476562 C 463.839844 496.476562 462.316406 496.855469 464.222656 497.429688 Z M 464.222656 497.429688 "/>
<path style=" stroke:none;fill-rule:nonzero;fill:rgb(0%,0%,0%);fill-opacity:1;" d="M 517.648438 497.429688 C 519.367188 497.8125 522.035156 497.8125 523.371094 497.429688 C 524.515625 496.855469 523.179688 496.476562 519.9375 496.476562 C 516.886719 496.476562 515.738281 496.855469 517.648438 497.429688 Z M 517.648438 497.429688 "/>
<path style=" stroke:none;fill-rule:nonzero;fill:rgb(0%,0%,0%);fill-opacity:1;" d="M 556 519.945312 C 556 533.492188 556.191406 538.835938 556.570312 531.773438 C 556.953125 524.714844 556.953125 513.457031 556.570312 506.96875 C 556.191406 500.480469 556 506.207031 556 519.945312 Z M 556 519.945312 "/>
<path style=" stroke:none;fill-rule:nonzero;fill:rgb(0%,0%,0%);fill-opacity:1;" d="M 581.183594 500.101562 C 578.515625 502.199219 576.222656 504.871094 576.222656 506.015625 C 576.222656 507.160156 577.75 506.015625 579.660156 503.726562 C 581.375 501.4375 585.957031 498.957031 589.582031 498 C 595.304688 496.667969 595.496094 496.476562 591.296875 496.285156 C 588.4375 496.09375 584.046875 497.8125 581.183594 500.101562 Z M 581.183594 500.101562 "/>
<path style=" stroke:none;fill-rule:nonzero;fill:rgb(0%,0%,0%);fill-opacity:1;" d="M 632.128906 497.429688 C 633.847656 497.8125 636.519531 497.8125 637.855469 497.429688 C 639 496.855469 637.664062 496.476562 634.417969 496.476562 C 631.367188 496.476562 630.222656 496.855469 632.128906 497.429688 Z M 632.128906 497.429688 "/>
<path style=" stroke:none;fill-rule:nonzero;fill:rgb(0%,0%,0%);fill-opacity:1;" d="M 824.839844 497.429688 C 826.558594 497.8125 829.230469 497.8125 830.566406 497.429688 C 831.710938 496.855469 830.375 496.476562 827.128906 496.476562 C 824.078125 496.476562 822.933594 496.855469 824.839844 497.429688 Z M 824.839844 497.429688 "/>
<path style=" stroke:none;fill-rule:nonzero;fill:rgb(0%,0%,0%);fill-opacity:1;" d="M 993.320312 500.101562 C 990.648438 502.199219 988.359375 504.871094 988.359375 506.015625 C 988.359375 507.160156 989.886719 506.015625 991.792969 503.726562 C 993.511719 501.4375 998.089844 498.957031 1001.714844 498 C 1007.4375 496.667969 1007.628906 496.476562 1003.433594 496.285156 C 1000.570312 496.09375 996.183594 497.8125 993.320312 500.101562 Z M 993.320312 500.101562 "/>
<path style=" stroke:none;fill-rule:nonzero;fill:rgb(0%,0%,0%);fill-opacity:1;" d="M 1038.539062 519.945312 L 1038.730469 544.75 L 1039.683594 525.285156 C 1040.640625 509.832031 1041.59375 505.0625 1044.644531 501.4375 L 1048.460938 497.046875 L 1044.265625 500.480469 C 1040.257812 503.917969 1040.257812 503.917969 1039.304688 499.527344 C 1038.921875 497.046875 1038.539062 506.207031 1038.539062 519.945312 Z M 1038.539062 519.945312 "/>
<path style=" stroke:none;fill-rule:nonzero;fill:rgb(0%,0%,0%);fill-opacity:1;" d="M 1050.941406 497.429688 C 1052.085938 497.8125 1054.375 497.8125 1055.710938 497.429688 C 1056.855469 496.855469 1055.902344 496.476562 1053.230469 496.476562 C 1050.558594 496.476562 1049.605469 496.855469 1050.941406 497.429688 Z M 1050.941406 497.429688 "/>
<path style=" stroke:none;fill-rule:nonzero;fill:rgb(0%,0%,0%);fill-opacity:1;" d="M 1076.699219 497.429688 C 1078.417969 497.8125 1081.089844 497.8125 1082.425781 497.429688 C 1083.570312 496.855469 1082.234375 496.476562 1078.988281 496.476562 C 1075.9375 496.476562 1074.792969 496.855469 1076.699219 497.429688 Z M 1076.699219 497.429688 "/>
<path style=" stroke:none;fill-rule:nonzero;fill:rgb(0%,0%,0%);fill-opacity:1;" d="M 432.167969 501.4375 C 434.457031 504.296875 435.984375 509.640625 436.558594 516.890625 C 437.511719 530.4375 433.695312 539.40625 425.871094 541.125 C 417.667969 542.839844 416.523438 543.414062 421.292969 543.605469 C 432.933594 543.984375 439.609375 533.492188 438.464844 516.699219 C 437.890625 507.921875 436.558594 504.488281 433.121094 501.246094 L 428.542969 497.046875 Z M 432.167969 501.4375 "/>
<path style=" stroke:none;fill-rule:nonzero;fill:rgb(0%,0%,0%);fill-opacity:1;" d="M 476.625 499.910156 C 477.769531 501.4375 478.914062 505.441406 478.914062 508.6875 C 478.914062 514.601562 478.535156 514.984375 470.902344 515.746094 L 462.695312 516.511719 L 470.902344 516.699219 L 478.914062 517.082031 L 478.914062 524.90625 C 478.914062 529.101562 477.960938 534.445312 476.816406 536.542969 C 475.289062 539.40625 475.289062 540.167969 477.007812 539.023438 C 478.152344 538.261719 480.441406 539.214844 481.96875 541.125 C 484.640625 544.558594 484.640625 544.558594 482.921875 540.550781 C 481.777344 538.261719 480.824219 528.722656 480.824219 519.371094 C 480.824219 505.253906 480.25 501.816406 477.578125 499.71875 C 474.71875 497.621094 474.527344 497.621094 476.625 499.910156 Z M 476.625 499.910156 "/>
<path style=" stroke:none;fill-rule:nonzero;fill:rgb(0%,0%,0%);fill-opacity:1;" d="M 529.476562 501.4375 C 531.765625 504.296875 533.292969 509.640625 533.867188 516.890625 C 534.820312 530.4375 531.003906 539.40625 523.179688 541.125 C 514.976562 542.839844 513.832031 543.414062 518.601562 543.605469 C 530.242188 543.984375 536.917969 533.492188 535.773438 516.699219 C 535.203125 507.921875 533.867188 504.488281 530.433594 501.246094 L 525.851562 497.046875 Z M 529.476562 501.4375 "/>
<path style=" stroke:none;fill-rule:nonzero;fill:rgb(0%,0%,0%);fill-opacity:1;" d="M 599.691406 500.292969 C 601.410156 501.628906 603.699219 505.253906 604.84375 508.113281 C 608.660156 518.609375 608.089844 518.992188 591.679688 518.992188 C 576.605469 518.992188 576.414062 518.992188 575.652344 513.648438 C 575.269531 510.785156 574.699219 513.839844 574.507812 520.136719 C 574.316406 529.292969 575.078125 532.917969 578.324219 536.925781 C 580.421875 539.597656 582.902344 541.886719 583.855469 541.886719 C 584.8125 541.886719 583.476562 539.789062 580.996094 537.117188 C 577.941406 534.253906 576.222656 530.246094 576.222656 526.621094 L 576.222656 520.898438 L 609.234375 520.898438 L 608.089844 514.03125 C 606.753906 506.207031 601.984375 498 598.738281 498 C 597.402344 498 597.976562 499.148438 599.691406 500.292969 Z M 599.691406 500.292969 "/>
<path style=" stroke:none;fill-rule:nonzero;fill:rgb(0%,0%,0%);fill-opacity:1;" d="M 622.78125 502.773438 C 619.917969 507.160156 619.917969 507.921875 622.78125 512.3125 C 624.496094 514.984375 626.976562 517.082031 628.3125 517.082031 C 629.457031 517.082031 629.078125 516.128906 627.359375 514.984375 C 623.351562 512.695312 622.78125 503.726562 626.214844 500.292969 C 627.550781 498.957031 627.933594 498 627.167969 498 C 626.597656 498 624.496094 500.101562 622.78125 502.773438 Z M 622.78125 502.773438 "/>
<path style=" stroke:none;fill-rule:nonzero;fill:rgb(0%,0%,0%);fill-opacity:1;" d="M 641.097656 498.765625 C 641.097656 499.148438 642.433594 500.101562 644.152344 500.671875 C 645.675781 501.246094 646.441406 501.054688 645.867188 499.910156 C 644.722656 498 641.097656 497.238281 641.097656 498.765625 Z M 641.097656 498.765625 "/>
<path style=" stroke:none;fill-rule:nonzero;fill:rgb(0%,0%,0%);fill-opacity:1;" d="M 813.011719 502.960938 C 809.957031 506.96875 809.003906 510.785156 809.003906 519.945312 C 809.003906 529.101562 809.957031 532.917969 813.011719 536.925781 C 815.109375 539.597656 817.589844 541.886719 818.542969 541.886719 C 819.5 541.886719 818.164062 539.789062 815.683594 537.117188 C 811.484375 533.109375 810.910156 530.820312 810.910156 519.945312 C 810.910156 509.070312 811.484375 506.777344 815.683594 502.773438 C 818.164062 500.101562 819.5 498 818.542969 498 C 817.589844 498 815.109375 500.292969 813.011719 502.960938 Z M 813.011719 502.960938 "/>
<path style=" stroke:none;fill-rule:nonzero;fill:rgb(0%,0%,0%);fill-opacity:1;" d="M 837.625 502.773438 C 841.632812 507.160156 842.394531 509.640625 842.394531 519.945312 C 842.394531 530.246094 841.632812 532.726562 837.625 537.117188 C 834.570312 540.359375 834 541.695312 836.097656 540.933594 C 840.488281 539.214844 845.257812 528.339844 845.257812 519.945312 C 845.257812 511.550781 840.488281 500.671875 836.097656 498.957031 C 834 498.191406 834.570312 499.527344 837.625 502.773438 Z M 837.625 502.773438 "/>
<path style=" stroke:none;fill-rule:nonzero;fill:rgb(0%,0%,0%);fill-opacity:1;" d="M 862.238281 504.109375 C 859.183594 509.257812 858.613281 512.882812 859.183594 522.617188 C 859.757812 533.109375 860.519531 535.398438 865.101562 539.214844 C 867.960938 541.886719 872.542969 543.796875 875.402344 543.605469 C 880.171875 543.414062 879.984375 543.222656 874.066406 541.886719 C 865.101562 539.789062 862.046875 535.972656 860.902344 524.90625 C 859.757812 513.265625 861.285156 506.777344 866.246094 501.816406 C 868.34375 499.71875 869.105469 498 868.152344 498 C 867.007812 498 864.527344 500.863281 862.238281 504.109375 Z M 862.238281 504.109375 "/>
<path style=" stroke:none;fill-rule:nonzero;fill:rgb(0%,0%,0%);fill-opacity:1;" d="M 913.753906 504.109375 C 910.703125 509.257812 910.128906 512.882812 910.703125 522.617188 C 911.273438 533.109375 912.039062 535.398438 916.617188 539.214844 C 919.480469 541.886719 924.058594 543.796875 926.921875 543.605469 C 931.691406 543.414062 931.5 543.222656 925.585938 541.886719 C 916.617188 539.789062 913.5625 535.972656 912.417969 524.90625 C 911.273438 513.265625 912.800781 506.777344 917.761719 501.816406 C 919.859375 499.71875 920.625 498 919.667969 498 C 918.523438 498 916.042969 500.863281 913.753906 504.109375 Z M 913.753906 504.109375 "/>
<path style=" stroke:none;fill-rule:nonzero;fill:rgb(0%,0%,0%);fill-opacity:1;" d="M 1011.828125 500.292969 C 1013.542969 501.628906 1015.835938 505.253906 1016.980469 508.113281 C 1020.796875 518.609375 1020.222656 518.992188 1003.8125 518.992188 C 988.742188 518.992188 988.550781 518.992188 987.785156 513.648438 C 987.40625 510.785156 986.832031 513.839844 986.640625 520.136719 C 986.449219 529.292969 987.214844 532.917969 990.457031 536.925781 C 992.554688 539.597656 995.035156 541.886719 995.992188 541.886719 C 996.945312 541.886719 995.609375 539.789062 993.128906 537.117188 C 990.074219 534.253906 988.359375 530.246094 988.359375 526.621094 L 988.359375 520.898438 L 1021.367188 520.898438 L 1020.222656 514.03125 C 1018.886719 506.207031 1014.117188 498 1010.875 498 C 1009.539062 498 1010.109375 499.148438 1011.828125 500.292969 Z M 1011.828125 500.292969 "/>
<path style=" stroke:none;fill-rule:nonzero;fill:rgb(0%,0%,0%);fill-opacity:1;" d="M 1067.351562 502.773438 C 1064.488281 507.160156 1064.488281 507.921875 1067.351562 512.3125 C 1069.066406 514.984375 1071.546875 517.082031 1072.882812 517.082031 C 1074.027344 517.082031 1073.648438 516.128906 1071.929688 514.984375 C 1067.921875 512.695312 1067.351562 503.726562 1070.785156 500.292969 C 1072.121094 498.957031 1072.503906 498 1071.738281 498 C 1071.167969 498 1069.066406 500.101562 1067.351562 502.773438 Z M 1067.351562 502.773438 "/>
<path style=" stroke:none;fill-rule:nonzero;fill:rgb(0%,0%,0%);fill-opacity:1;" d="M 1085.667969 498.765625 C 1085.667969 499.148438 1087.003906 500.101562 1088.722656 500.671875 C 1090.246094 501.246094 1091.011719 501.054688 1090.4375 499.910156 C 1089.292969 498 1085.667969 497.238281 1085.667969 498.765625 Z M 1085.667969 498.765625 "/>
<path style=" stroke:none;fill-rule:nonzero;fill:rgb(0%,0%,0%);fill-opacity:1;" d="M 732.875 519.179688 C 731.730469 522.617188 731.15625 525.667969 731.539062 526.050781 C 731.917969 526.433594 733.253906 524.140625 734.398438 520.707031 C 735.546875 517.273438 736.117188 514.21875 735.734375 513.839844 C 735.355469 513.457031 734.019531 515.746094 732.875 519.179688 Z M 732.875 519.179688 "/>
<path style=" stroke:none;fill-rule:nonzero;fill:rgb(0%,0%,0%);fill-opacity:1;" d="M 455.445312 519.371094 C 450.105469 523.570312 449.339844 532.726562 454.109375 538.070312 L 458.308594 542.839844 L 455.253906 538.070312 C 451.25 531.773438 451.441406 528.148438 456.210938 522.042969 C 460.597656 516.511719 460.40625 515.9375 455.445312 519.371094 Z M 455.445312 519.371094 "/>
<path style=" stroke:none;fill-rule:nonzero;fill:rgb(0%,0%,0%);fill-opacity:1;" d="M 645.675781 524.714844 C 649.683594 530.820312 649.492188 533.492188 644.914062 538.070312 C 642.816406 540.167969 641.859375 541.886719 642.816406 541.886719 C 645.105469 541.886719 650.636719 534.253906 650.636719 531.203125 C 650.636719 529.867188 648.921875 527.003906 646.628906 524.523438 L 642.625 519.945312 Z M 645.675781 524.714844 "/>
<path style=" stroke:none;fill-rule:nonzero;fill:rgb(0%,0%,0%);fill-opacity:1;" d="M 1090.246094 524.714844 C 1094.253906 530.820312 1094.0625 533.492188 1089.484375 538.070312 C 1087.386719 540.167969 1086.429688 541.886719 1087.386719 541.886719 C 1089.675781 541.886719 1095.207031 534.253906 1095.207031 531.203125 C 1095.207031 529.867188 1093.492188 527.003906 1091.203125 524.523438 L 1087.195312 519.945312 Z M 1090.246094 524.714844 "/>
<path style=" stroke:none;fill-rule:nonzero;fill:rgb(0%,0%,0%);fill-opacity:1;" d="M 601.027344 539.980469 C 599.3125 541.125 599.121094 541.886719 600.457031 541.886719 C 601.601562 541.886719 603.320312 540.933594 603.890625 539.980469 C 605.417969 537.6875 604.652344 537.6875 601.027344 539.980469 Z M 601.027344 539.980469 "/>
<path style=" stroke:none;fill-rule:nonzero;fill:rgb(0%,0%,0%);fill-opacity:1;" d="M 620.109375 538.835938 C 620.109375 539.214844 621.445312 540.167969 623.160156 540.742188 C 624.6875 541.316406 625.453125 541.125 624.878906 539.980469 C 623.734375 538.070312 620.109375 537.308594 620.109375 538.835938 Z M 620.109375 538.835938 "/>
<path style=" stroke:none;fill-rule:nonzero;fill:rgb(0%,0%,0%);fill-opacity:1;" d="M 1013.164062 539.980469 C 1011.445312 541.125 1011.253906 541.886719 1012.589844 541.886719 C 1013.734375 541.886719 1015.453125 540.933594 1016.023438 539.980469 C 1017.550781 537.6875 1016.789062 537.6875 1013.164062 539.980469 Z M 1013.164062 539.980469 "/>
<path style=" stroke:none;fill-rule:nonzero;fill:rgb(0%,0%,0%);fill-opacity:1;" d="M 1064.679688 538.835938 C 1064.679688 539.214844 1066.015625 540.167969 1067.734375 540.742188 C 1069.257812 541.316406 1070.023438 541.125 1069.449219 539.980469 C 1068.304688 538.070312 1064.679688 537.308594 1064.679688 538.835938 Z M 1064.679688 538.835938 "/>
<path style=" stroke:none;fill-rule:nonzero;fill:rgb(0%,0%,0%);fill-opacity:1;" d="M 462.316406 543.222656 C 464.03125 543.605469 466.703125 543.605469 468.039062 543.222656 C 469.183594 542.648438 467.847656 542.269531 464.605469 542.269531 C 461.550781 542.269531 460.40625 542.648438 462.316406 543.222656 Z M 462.316406 543.222656 "/>
<path style=" stroke:none;fill-rule:nonzero;fill:rgb(0%,0%,0%);fill-opacity:1;" d="M 590.152344 543.222656 C 591.871094 543.605469 594.542969 543.605469 595.878906 543.222656 C 597.023438 542.648438 595.6875 542.269531 592.441406 542.269531 C 589.390625 542.269531 588.246094 542.648438 590.152344 543.222656 Z M 590.152344 543.222656 "/>
<path style=" stroke:none;fill-rule:nonzero;fill:rgb(0%,0%,0%);fill-opacity:1;" d="M 632.128906 543.222656 C 633.847656 543.605469 636.519531 543.605469 637.855469 543.222656 C 639 542.648438 637.664062 542.269531 634.417969 542.269531 C 631.367188 542.269531 630.222656 542.648438 632.128906 543.222656 Z M 632.128906 543.222656 "/>
<path style=" stroke:none;fill-rule:nonzero;fill:rgb(0%,0%,0%);fill-opacity:1;" d="M 704.636719 543.222656 C 706.351562 543.605469 709.40625 543.605469 711.3125 543.222656 C 713.03125 542.648438 711.503906 542.269531 707.878906 542.269531 C 704.253906 542.269531 702.726562 542.648438 704.636719 543.222656 Z M 704.636719 543.222656 "/>
<path style=" stroke:none;fill-rule:nonzero;fill:rgb(0%,0%,0%);fill-opacity:1;" d="M 824.839844 543.222656 C 826.558594 543.605469 829.230469 543.605469 830.566406 543.222656 C 831.710938 542.648438 830.375 542.269531 827.128906 542.269531 C 824.078125 542.269531 822.933594 542.648438 824.839844 543.222656 Z M 824.839844 543.222656 "/>
<path style=" stroke:none;fill-rule:nonzero;fill:rgb(0%,0%,0%);fill-opacity:1;" d="M 1002.289062 543.222656 C 1004.003906 543.605469 1006.675781 543.605469 1008.011719 543.222656 C 1009.15625 542.648438 1007.820312 542.269531 1004.578125 542.269531 C 1001.523438 542.269531 1000.378906 542.648438 1002.289062 543.222656 Z M 1002.289062 543.222656 "/>
<path style=" stroke:none;fill-rule:nonzero;fill:rgb(0%,0%,0%);fill-opacity:1;" d="M 1076.699219 543.222656 C 1078.417969 543.605469 1081.089844 543.605469 1082.425781 543.222656 C 1083.570312 542.648438 1082.234375 542.269531 1078.988281 542.269531 C 1075.9375 542.269531 1074.792969 542.648438 1076.699219 543.222656 Z M 1076.699219 543.222656 "/>
</g>
</svg>
